<svg id="Layer_1" data-name="Layer 1" xmlns="http://www.w3.org/2000/svg" viewBox="0 0 270 46"><defs><style>.cls-1{fill:#fff;}</style></defs><path class="cls-1" d="M12.23,9.08h10c3.62,0,6.32.75,8.08,2.26s2.64,3.71,2.64,6.62A11.75,11.75,0,0,1,32,22.72a9.73,9.73,0,0,1-2.56,3.48,11.69,11.69,0,0,1-3.88,2.14,15.6,15.6,0,0,1-4.88.74h-4l-1.76,8.56H6.19Zm6,13h2.52a4.77,4.77,0,0,0,3-.83,3,3,0,0,0,1.08-2.5,2.59,2.59,0,0,0-.74-2,3.44,3.44,0,0,0-2.38-.69H19.47Z"/><path class="cls-1" d="M38.67,9.08h9.08l-6,28.56H32.63Z"/><path class="cls-1" d="M64.23,8.36a15.6,15.6,0,0,1,5.16.82,11.15,11.15,0,0,1,4.1,2.46,11.33,11.33,0,0,1,2.72,4.08,15.07,15.07,0,0,1,1,5.64,19.11,19.11,0,0,1-1.1,6.44,16.91,16.91,0,0,1-3.18,5.44A15.27,15.27,0,0,1,67.85,37,16.76,16.76,0,0,1,56,37.54a10.88,10.88,0,0,1-6.8-6.5,15,15,0,0,1-1-5.64A19.15,19.15,0,0,1,49.31,19a16.56,16.56,0,0,1,3.14-5.44,14.74,14.74,0,0,1,5.08-3.78A15.61,15.61,0,0,1,64.23,8.36Zm-.56,7.76a4.42,4.42,0,0,0-3,1,6.85,6.85,0,0,0-1.84,2.44,11.61,11.61,0,0,0-.92,3,16.36,16.36,0,0,0-.26,2.74,10.28,10.28,0,0,0,.16,1.8,5.43,5.43,0,0,0,.58,1.7,3.5,3.5,0,0,0,1.2,1.28,3.78,3.78,0,0,0,2.06.5,4.49,4.49,0,0,0,3-1,7.37,7.37,0,0,0,1.86-2.44,11.77,11.77,0,0,0,.94-3,17.71,17.71,0,0,0,.26-2.74,12.13,12.13,0,0,0-.14-1.76,5.11,5.11,0,0,0-.58-1.7,3.54,3.54,0,0,0-3.32-1.82Z"/><path class="cls-1" d="M89.39,22.48l-3.2,15.16H77.71l6-28.56h7.8l6,15.16,3.16-15.16h8.48l-6,28.56H95.39Z"/><path class="cls-1" d="M114,9.08h21.24l-1.48,7H121.39l-.76,3.64h11.52l-1.48,7H119.15l-.84,3.92h13l-1.92,7H107.91Z"/><path class="cls-1" d="M139.38,9.08h11.7a15.31,15.31,0,0,1,4.65.62A8.75,8.75,0,0,1,159,11.42a6.8,6.8,0,0,1,1.88,2.68,9.56,9.56,0,0,1,.62,3.5,9.7,9.7,0,0,1-1.78,5.88A11.39,11.39,0,0,1,155,27.2l3.88,10.44h-9l-2.83-9.16h-3.32l-1.91,9.16h-8.52Zm5.81,12.8h3.4a5.12,5.12,0,0,0,3-.82,2.93,2.93,0,0,0,1.14-2.54,2.65,2.65,0,0,0-.74-2,3.53,3.53,0,0,0-2.46-.7h-3Z"/><path class="cls-1" d="M190.55,19a3.44,3.44,0,0,0-1.06-2.22,3.33,3.33,0,0,0-2.26-.74,4.39,4.39,0,0,0-2.62.78,6.19,6.19,0,0,0-1.82,2,9.63,9.63,0,0,0-1.06,2.86,15.23,15.23,0,0,0-.34,3.24,10.9,10.9,0,0,0,.24,2.36,4.91,4.91,0,0,0,.8,1.86,3.78,3.78,0,0,0,1.5,1.22,5.52,5.52,0,0,0,2.34.44,7.51,7.51,0,0,0,1.72-.18,6.78,6.78,0,0,0,1.32-.46l.52-2.28H186L187.43,21h12.2l-3,14.08a21.91,21.91,0,0,1-11.76,3.36,14.48,14.48,0,0,1-6-1.1,11.11,11.11,0,0,1-4-2.92,11.35,11.35,0,0,1-2.24-4.18,17,17,0,0,1-.7-4.88,19.16,19.16,0,0,1,1-6.1,16.36,16.36,0,0,1,3-5.44,14.64,14.64,0,0,1,5.06-3.9,15.88,15.88,0,0,1,7-1.48,15.19,15.19,0,0,1,4.88.72,10.31,10.31,0,0,1,3.58,2,8.79,8.79,0,0,1,2.24,3.06,10.4,10.4,0,0,1,.86,3.8Z"/><path class="cls-1" d="M210.19,9.08l2.16,10.4L219,9.08h9.84L215.63,27l-2.24,10.6h-9.12L206.51,27,201,9.08Z"/><path class="cls-1" d="M248.55,37.64l3-14.16-7.16,14.16H238l-1.32-14.16-3,14.16h-8.12l6-28.56h10.2l1.6,17.36,9-17.36h10.56l-6,28.56Z"/></svg>